<svg xmlns="http://www.w3.org/2000/svg" style="display: none;">
  
    <symbol id="logo" viewBox="0 0 61.75 26">
      <path d="M60.154,21.533 C55.637,21.533 52.548,17.824 52.548,13.044 C52.548,8.226 55.599,4.403 60.154,4.403 C60.722,4.403 61.249,4.454 61.743,4.543 L61.743,21.389 C61.246,21.480 60.718,21.533 60.154,21.533 ZM53.643,25.989 L36.168,25.989 C39.549,24.130 41.813,20.661 41.813,16.482 L41.813,0.003 L53.664,0.003 C48.797,2.308 45.714,7.205 45.714,12.968 C45.714,18.757 48.754,23.702 53.643,25.989 ZM30.338,21.520 C27.617,21.520 25.843,19.646 25.843,16.951 L25.843,0.003 L34.833,0.003 L34.833,16.951 C34.833,19.646 33.059,21.520 30.338,21.520 ZM9.971,15.451 C13.189,13.608 14.934,10.844 14.934,7.234 C14.934,4.111 13.180,1.535 10.638,0.003 L18.863,0.003 L18.863,16.482 C18.863,20.661 21.127,24.130 24.508,25.989 L16.466,25.989 L9.971,15.451 ZM0.007,16.948 L3.535,16.948 L8.772,25.989 L0.007,25.989 L0.007,16.948 ZM3.535,11.419 L0.007,11.419 L0.007,4.315 L3.535,4.315 C5.900,4.315 8.032,5.391 8.032,7.733 C8.032,10.075 5.900,11.419 3.535,11.419 Z"/>
    </symbol>
    
    <symbol id="icon-phone" viewBox="0 0 512 512">
      <path d="m457 354c0 5-1 12-3 20-2 9-4 15-6 20-4 10-15 20-35 30-17 10-35 15-53 15-5 0-10 0-15-1-5-1-10-2-16-4-6-1-11-3-14-4-3-1-8-3-16-6-7-3-12-4-14-5-18-7-35-14-50-24-24-15-49-35-75-61-26-26-47-51-62-76-9-14-17-31-23-50-1-1-3-6-6-14-2-7-4-13-5-16-1-3-3-7-5-13-1-6-2-12-3-17-1-4-1-9-1-15 0-17 5-35 14-53 11-19 21-31 31-35 4-2 11-4 19-6 9-1 15-2 20-2 3 0 5 0 6 0 4 2 9 9 16 22 2 4 5 9 8 16 4 6 7 12 10 18 3 5 6 10 9 15 1 1 2 3 5 7 3 4 5 8 6 10 1 3 2 6 2 8 0 4-3 9-8 15-5 5-11 11-18 15-6 5-12 10-17 16-6 5-9 9-9 13 0 1 1 4 2 6 1 3 2 5 2 6 1 1 2 4 4 7 2 3 3 5 4 5 14 26 31 49 49 67 19 19 41 36 67 50 1 0 3 1 6 3 3 2 5 4 7 4 1 1 3 2 6 3 2 1 4 1 6 1 3 0 8-2 13-8 5-5 11-11 15-18 5-6 10-12 16-17 6-6 10-8 14-8 3 0 6 0 8 2 3 1 7 3 11 6 4 2 6 4 7 5 4 3 10 6 15 9 5 3 11 6 18 10 7 3 12 6 16 8 13 7 20 12 21 15 1 2 1 4 1 6z"/>
    </symbol>
  
    <symbol id="icon-envelope" viewBox="0 0 512 512">
      <path d="m512 203l0 227c0 12-4 23-13 32-9 9-20 13-33 13l-420 0c-13 0-24-4-33-13-9-9-13-20-13-32l0-227c8 9 18 17 29 25 69 47 116 79 142 98 11 8 20 15 26 19 7 4 16 9 27 14 12 4 22 7 32 7l0 0c10 0 20-3 32-7 11-5 20-10 27-14 6-4 15-11 26-19 33-23 80-56 142-98 11-8 21-16 29-25z m0-84c0 15-5 29-14 43-9 14-21 25-35 35-71 50-116 81-134 93-1 1-6 4-12 9-6 4-11 8-15 11-4 2-9 5-15 9-6 3-11 6-16 8-6 1-10 2-15 2l0 0c-5 0-9-1-15-2-5-2-10-5-16-8-6-4-11-7-15-9-4-3-9-7-15-11-6-5-11-8-12-9-18-12-43-30-75-52-33-23-52-36-59-41-12-8-23-19-33-33-11-14-16-27-16-39 0-15 4-27 12-37 8-10 19-15 34-15l420 0c13 0 23 5 32 14 9 9 14 19 14 32z"/>
    </symbol>
  
    <symbol id="icon-facebook" viewBox="0 0 512 512">
      <path d="m384 3l0 76-45 0c-17 0-28 3-33 10-6 7-9 17-9 31l0 54 84 0-11 85-73 0 0 216-87 0 0-216-73 0 0-85 73 0 0-62c0-36 10-63 29-83 20-19 47-29 80-29 28 0 49 1 65 3z"/>
    </symbol>
  
    <symbol id="icon-twitter" viewBox="0 0 512 512">
      <path d="m481 117c-13 18-28 34-46 47 0 3 0 7 0 12 0 25-3 50-11 74-7 25-18 49-33 71-14 23-32 43-52 61-21 17-45 31-74 41-29 11-60 16-92 16-52 0-99-14-142-42 7 1 14 2 22 2 43 0 81-14 115-40-20 0-38-6-54-18-16-12-27-27-33-46 7 1 13 2 18 2 8 0 16-1 24-4-21-4-39-15-53-31-14-17-21-37-21-59l0-1c13 7 27 11 42 11-13-8-23-19-30-32-8-14-11-29-11-44 0-17 4-33 12-47 23 28 51 51 84 68 33 17 69 27 107 29-2-8-3-15-3-22 0-25 9-47 27-65 18-18 40-27 66-27 26 0 49 10 67 29 21-4 40-11 59-22-7 22-21 39-41 51 18-2 35-7 53-14z"/>
    </symbol>
  
    <symbol id="icon-linkedin" viewBox="0 0 512 512">
      <path d="m136 179l0 283-94 0 0-283z m6-88c0 14-4 26-14 35-10 9-23 14-39 14l0 0c-16 0-29-5-38-14-10-9-14-21-14-35 0-14 4-26 14-35 10-9 23-14 39-14 16 0 28 5 38 14 9 9 14 21 14 35z m333 208l0 163-94 0 0-152c0-20-3-35-11-47-8-11-20-17-36-17-12 0-22 4-30 10-9 7-15 15-19 25-2 5-3 13-3 23l0 158-94 0c1-76 1-138 1-185 0-47 0-76 0-85l-1-13 94 0 0 41 0 0c4-6 7-12 11-16 4-5 10-10 17-15 6-5 15-10 24-13 10-3 21-4 33-4 33 0 59 11 79 32 20 22 29 54 29 95z"/>
    </symbol>
  
    <symbol id="icon-instagram" viewBox="0 0 512 512">
      <path d="m426 407l0-185-39 0c4 12 6 25 6 38 0 24-6 46-18 66-13 20-29 36-50 48-21 12-44 18-69 18-37 0-69-13-96-39-27-26-40-57-40-93 0-13 2-26 6-38l-41 0 0 185c0 5 2 10 5 13 4 3 8 5 13 5l305 0c5 0 9-2 13-5 3-3 5-8 5-13z m-81-152c0-23-9-44-26-60-18-17-38-25-63-25-24 0-45 8-62 25-17 16-26 37-26 60 0 24 9 44 26 61 17 16 38 25 62 25 25 0 45-9 63-25 17-17 26-37 26-61z m81-103l0-47c0-5-2-10-6-14-4-4-8-6-14-6l-50 0c-5 0-10 2-14 6-4 4-5 9-5 14l0 47c0 6 1 10 5 14 4 4 9 6 14 6l50 0c6 0 10-2 14-6 4-4 6-8 6-14z m49-59l0 326c0 16-5 29-16 40-11 11-24 16-40 16l-326 0c-16 0-29-5-40-16-11-11-16-24-16-40l0-326c0-16 5-29 16-40 11-11 24-16 40-16l326 0c16 0 29 5 40 16 11 11 16 24 16 40z"/>
    </symbol>
  
    <symbol id="icon-search" viewBox="0 0 512 512">
      <path d="m347 238c0-36-12-66-37-91-25-25-55-37-91-37-35 0-65 12-90 37-25 25-38 55-38 91 0 35 13 65 38 90 25 25 55 38 90 38 36 0 66-13 91-38 25-25 37-55 37-90z m147 237c0 10-4 19-11 26-7 7-16 11-26 11-10 0-19-4-26-11l-98-98c-34 24-72 36-114 36-27 0-53-5-78-16-25-11-46-25-64-43-18-18-32-39-43-64-10-25-16-51-16-78 0-28 6-54 16-78 11-25 25-47 43-65 18-18 39-32 64-43 25-10 51-15 78-15 28 0 54 5 79 15 24 11 46 25 64 43 18 18 32 40 43 65 10 24 16 50 16 78 0 42-12 80-36 114l98 98c7 7 11 15 11 25z"/>
    </symbol>
    
    <symbol id="icon-user" viewBox="0 0 512 512">
      <path class="st0" d="M448,384c-31.4-16.8-76.8-56.9-144.6-70.3c16.6-21.4,30.1-55,44.2-93.8c7-23.4,5.8-42.9,5.8-70.3
        c0-20.8,3.8-53-1.3-71.7C337.3,16.8,299.5,0,255.4,0c-44.8,0-82.6,16.8-97.3,77.8c-4.5,18.8-1.3,51.6-1.3,71.7
        c0,27.5-1.3,46.9,7,70.3c13.4,38.9,26.2,73.1,43.5,93.8C140.2,327.7,94.1,367.9,64,384C0,416.2,0,451.7,0,451.7v13.4
        C0,488.5,23.7,512,46.7,512h417.9c29.4,0,47.4-25.5,47.4-48.9v-11.4C512,451.7,511.4,416.2,448,384z"/>
    </symbol>
    
    <symbol id="icon-times" viewBox="0 0 512 512">
      <path d="m426 378c0 7-3 14-8 19l-39 39c-5 5-12 8-20 8-7 0-14-3-19-8l-84-84-84 84c-5 5-12 8-19 8-8 0-15-3-20-8l-39-39c-5-5-8-12-8-19 0-8 3-14 8-20l84-84-84-84c-5-5-8-12-8-19 0-8 3-14 8-20l39-38c5-6 12-8 20-8 7 0 14 2 19 8l84 84 84-84c5-6 12-8 19-8 8 0 15 2 20 8l39 38c5 6 8 12 8 20 0 7-3 14-8 19l-84 84 84 84c5 6 8 12 8 20z"/>
    </symbol>
  
    <symbol id="icon-file" viewBox="0 0 512 512">
      <path d="m329 146l0-135c4 3 8 6 10 8l117 117c3 3 5 6 8 10z m-36 9c0 8 2 15 8 20 5 5 11 8 19 8l155 0 0 302c0 7-2 14-8 19-5 5-11 8-19 8l-384 0c-8 0-14-3-19-8-6-5-8-12-8-19l0-458c0-7 2-14 8-19 5-5 11-8 19-8l229 0z"/>
    </symbol>
  
    <symbol id="icon-plus" viewBox="0 0 512 512">
      <path d="m389 230c10 0 15 9 15 26c0 17-5 26-15 26c0 0-107 0-107 0c0 0 0 107 0 107c0 10-9 15-26 15c-17 0-26-5-26-15c0 0 0-107 0-107c0 0-107 0-107 0c-10 0-15-9-15-26c0-17 5-26 15-26c0 0 107 0 107 0c0 0 0-107 0-107c0-10 9-15 26-15c17 0 26 5 26 15c0 0 0 107 0 107c0 0 107 0 107 0"/>
    </symbol>
  
    <symbol id="icon-minus" viewBox="0 0 512 512">
      <path d="m389 230c10 0 15 9 15 26c0 17-5 26-15 26c0 0-266 0-266 0c-10 0-15-9-15-26c0-17 5-26 15-26c0 0 266 0 266 0"/>
    </symbol>
  
</svg>
